<svg xmlns="http://www.w3.org/2000/svg" xmlns:xlink="http://www.w3.org/1999/xlink" width="392" height="226" version="1.1" viewBox="0 0 392 226"><title>patch-logic</title><desc>Created with Sketch.</desc><defs><rect id="path-1" width="91" height="43" x="284" y="63"/><rect id="path-2" width="91" height="43" x="284" y="166"/></defs><g id="Page-1" fill="none" fill-rule="evenodd" stroke="none" stroke-width="1"><g id="patch-logic"><g id="Group-Copy-2" transform="translate(294.000000, 73.000000)"><text id="prefix-code" fill="#000" font-family="Courier" font-size="12" font-weight="normal"><tspan x="7" y="17">prefix</tspan> <tspan x="7" y="31">code</tspan></text><rect id="Rectangle" width="90" height="42" x=".5" y=".5" stroke="#000"/></g><g id="Group-Copy-3" transform="translate(294.000000, 176.000000)"><text id="prefix-code" fill="#000" font-family="Courier" font-size="12" font-weight="normal"><tspan x="7" y="17">prefix</tspan> <tspan x="7" y="31">code</tspan></text><rect id="Rectangle" width="90" height="42" x=".5" y=".5" stroke="#000"/></g><text id="OriginalMethod()" fill="#000" font-family="Courier" font-size="12" font-weight="normal"><tspan x="6" y="16">OriginalMethod()</tspan></text><text id="Dynamic-method" fill="#000" font-family="Courier" font-size="12" font-weight="normal"><tspan x="146" y="57">Dynamic method</tspan></text><text id="Transpilers" fill="#000" font-family="Courier" font-size="12" font-weight="normal"><tspan x="11.394" y="144">Transpilers</tspan></text><path id="Line" fill="#D0D0D0" stroke="#D0D0D0" stroke-linecap="square" stroke-width="2" d="M52,23.5 L52,59"/><path id="Line-decoration-1" fill="#D0D0D0" stroke="#D0D0D0" stroke-linecap="square" stroke-width="2" d="M52,59 L55,48.2 L49,48.2 L52,59 Z"/><path id="Line" fill="#000" stroke="#000" stroke-linecap="square" stroke-width="2" d="M71,23 L129,61"/><path id="Line-decoration-1" fill="#000" stroke="#000" stroke-linecap="square" stroke-width="2" d="M129,61 L121.610299,52.571933 L118.322141,57.5906998 L129,61 Z"/><path id="Line-Copy" fill="#000" stroke="#000" stroke-linecap="square" stroke-width="2" d="M250,84.5 L277.225907,84.5"/><path id="Line-Copy-decoration-1" fill="#000" stroke="#000" stroke-linecap="square" stroke-width="2" d="M277.225907,84.5 L266.425907,81.5 L266.425907,87.5 L277.225907,84.5 Z"/><path id="Line-Copy-3" fill="#000" stroke="#000" stroke-linecap="square" stroke-width="2" d="M95.9975491,140.5 L147,140.5"/><path id="Line-Copy-3-decoration-1" fill="#000" stroke="#000" stroke-linecap="square" stroke-width="2" d="M147,140.5 L136.2,137.5 L136.2,143.5 L147,140.5 Z"/><path id="Line-Copy-3" fill="#000" stroke="#000" stroke-linecap="square" stroke-width="2" d="M51.2259068,105.998914 L51.2259068,129.5"/><path id="Line-Copy-3-decoration-1" fill="#000" stroke="#000" stroke-linecap="square" stroke-width="2" d="M51.2259068,129.5 L54.2259068,118.7 L48.2259068,118.7 L51.2259068,129.5 Z"/><path id="Line-Copy-2" fill="#000" stroke="#000" stroke-linecap="square" stroke-width="2" d="M250,187.5 L277.225907,187.5"/><path id="Line-Copy-2-decoration-1" fill="#000" stroke="#000" stroke-linecap="square" stroke-width="2" d="M277.225907,187.5 L266.425907,184.5 L266.425907,190.5 L277.225907,187.5 Z"/><g id="Group" transform="translate(6.000000, 63.000000)"><text id="original-code" fill="#000" font-family="Courier" font-size="12" font-weight="normal"><tspan x="7" y="17">original</tspan> <tspan x="7" y="31">code</tspan></text><rect id="Rectangle" width="90" height="42" x=".5" y=".5" stroke="#000"/></g><g id="Group-Copy" stroke="#000" transform="translate(131.000000, 63.000000)"><rect id="Rectangle" width="128" height="142" x=".5" y=".5"/></g><g id="Group-Copy-2" transform="translate(140.000000, 94.000000)"><text id="skip-logic" fill="#000" font-family="Courier" font-size="12" font-weight="normal"><tspan x="8.385" y="17.053">skip logic</tspan></text><rect id="Rectangle" width="108" height="74" x=".5" y=".5" stroke="#000"/></g><g id="Group-Copy-2" transform="translate(148.000000, 119.000000)"><text id="modified-code" fill="#000" font-family="Courier" font-size="12" font-weight="normal"><tspan x="10.575" y="18">modified</tspan> <tspan x="10.575" y="32">code</tspan></text><rect id="Rectangle" width="91.825" height="41" x=".5" y=".5" stroke="#000"/></g><g id="Group-Copy-2" transform="translate(140.000000, 73.000000)"><text id="Prefix-calls" fill="#000" font-family="Courier" font-size="12" font-weight="normal"><tspan x="8.385" y="14.07">Prefix calls</tspan></text><rect id="Rectangle" width="108" height="21" x=".5" y=".5" stroke="#000"/></g><g id="Group-Copy-4" transform="translate(140.000000, 176.000000)"><text id="Postfix-calls" fill="#000" font-family="Courier" font-size="12" font-weight="normal"><tspan x="8.385" y="14.07">Postfix calls</tspan></text><rect id="Rectangle" width="108" height="21" x=".5" y=".5" stroke="#000"/></g><g id="Rectangle"><use fill="#FFF" fill-rule="evenodd" xlink:href="#path-1"/><rect width="90" height="42" x="284.5" y="63.5" stroke="#000" stroke-width="1"/></g><g id="Rectangle-Copy"><use fill="#FFF" fill-rule="evenodd" xlink:href="#path-2"/><rect width="90" height="42" x="284.5" y="166.5" stroke="#000" stroke-width="1"/></g><text id="prefix-code" fill="#000" font-family="Courier" font-size="12" font-weight="normal"><tspan x="291" y="80">prefix</tspan> <tspan x="291" y="94">code</tspan></text><text id="postfix-code" fill="#000" font-family="Courier" font-size="12" font-weight="normal"><tspan x="291" y="184">postfix</tspan> <tspan x="291" y="198">code</tspan></text></g></g></svg>